<svg width="820" height="399" viewBox="0 0 820 399" fill="none" xmlns="http://www.w3.org/2000/svg">
<g clip-path="url(#clip0_26_57)">
<path d="M696.725 334.561C698.026 338.459 696.54 342.636 694.587 346.256C689.289 356.188 680.739 364.356 670.514 369.09C664.845 371.781 658.71 373.359 652.855 375.772C635.846 382.827 621.996 396.935 615.397 414.107C617.349 402.226 611.121 390.438 603.5 381.063C595.971 371.689 586.862 363.242 581.472 352.475C576.824 343.193 576.731 329.456 586.119 325C592.998 321.751 601.642 325.371 608.706 322.401C611.216 321.287 613.446 319.059 613.353 316.368C612.981 309.499 599.41 309.963 599.039 303.095C598.667 295.205 619.488 297.526 616.792 290.007C615.677 286.851 611.216 285.923 609.728 282.953C608.148 279.983 608.241 275.806 610.937 273.671C614.375 270.887 619.581 273.114 623.949 272.093C628.875 270.979 632.036 265.967 633.058 260.955C634.081 255.943 633.523 250.838 634.266 245.826C636.032 233.481 646.164 222.807 658.339 220.208C670.515 217.609 684.085 223.364 690.685 233.945C693.38 238.307 694.867 244.155 691.985 248.331C689.476 251.858 684.085 254.179 684.549 258.449C685.107 264.297 695.982 264.854 696.168 270.701C696.353 277.57 682.225 277.57 682.597 284.438C682.783 287.502 686.036 289.265 687.988 291.678C691.706 296.133 690.219 303.837 685.107 306.621C683.062 307.735 680.646 308.199 679.066 309.777C674.976 313.768 678.973 320.823 683.806 323.793C688.64 326.764 694.959 329.084 696.725 334.561Z" fill="url(#paint0_linear_26_57)"/>
<path d="M661.034 335.025C663.915 333.447 666.982 331.961 669.306 329.549C674.046 324.35 673.767 316.554 674.139 309.499C674.511 302.445 677.02 294.184 683.806 292.328C689.475 290.75 696.633 294.184 700.815 290.1C702.395 288.615 703.046 286.387 704.161 284.531C708.994 276.456 721.728 277.105 728.792 283.325C735.763 289.543 738.458 299.197 740.782 308.293C741.619 311.634 741.712 316.276 738.458 317.203C735.298 318.039 732.138 314.14 729.164 315.347C726.748 316.276 726.561 319.71 727.491 322.216C728.328 324.629 729.814 327.136 729.257 329.735C728.141 334.561 721.357 334.839 716.523 333.54C711.69 332.241 705.463 330.941 702.674 335.118C705.742 344.864 708.344 356.745 701.466 364.449C693.566 373.267 678.973 372.339 667.169 373.453C645.234 375.495 629.711 392.202 617.349 410.488C616.605 379.856 634.172 349.598 661.034 335.025Z" fill="url(#paint1_linear_26_57)"/>
<path d="M633.521 396.564C633.428 396.564 633.428 396.564 633.336 396.564C633.056 396.471 632.963 396.192 633.056 396.007C644.21 361.942 661.963 338.274 694.401 314.419C700.443 309.964 718.661 302.445 726.561 301.796C726.747 301.796 727.026 301.981 727.026 302.26C727.026 302.539 726.84 302.724 726.561 302.724C719.032 303.374 700.722 310.892 694.959 315.162C662.614 338.924 644.954 362.407 633.893 396.286C633.893 396.378 633.708 396.564 633.521 396.564Z" fill="white"/>
<path d="M650.717 296.69L646.999 286.48C645.698 286.387 644.304 286.573 643.003 287.037L646.999 297.989C647.185 298.639 646.907 299.288 646.256 299.475C645.606 299.66 644.955 299.382 644.769 298.732L640.772 287.965C639.564 288.707 638.542 289.729 637.705 290.842L641.051 299.939C641.236 300.588 640.958 301.238 640.307 301.424C639.657 301.61 639.006 301.331 638.82 300.682L636.217 293.535C634.73 297.248 634.637 301.982 636.31 306.622C636.31 306.715 636.403 306.808 636.403 306.901C635.566 307.365 634.637 307.922 633.893 308.572C631.57 310.243 628.595 313.12 627.572 317.204L628.688 317.483C629.617 313.77 632.406 311.078 634.543 309.593C635.287 309.036 636.031 308.572 636.867 308.108C638.633 312.006 641.514 315.162 644.674 316.833L642.164 310.057C641.979 309.408 642.257 308.758 642.907 308.572C643.558 308.386 644.208 308.665 644.395 309.314L647.648 318.039C649.043 318.411 650.436 318.503 651.831 318.225L648.113 308.014C647.927 307.365 648.206 306.715 648.856 306.529C649.507 306.344 650.157 306.622 650.344 307.271L654.154 317.574C655.363 317.017 656.478 316.181 657.408 315.254L653.969 305.972C653.783 305.322 654.062 304.673 654.712 304.487C655.362 304.301 656.013 304.579 656.199 305.229L659.173 313.212C660.103 311.819 660.939 310.334 661.683 308.756L659.825 303.744C659.639 303.095 659.917 302.445 660.568 302.259C661.218 302.074 661.869 302.352 662.055 303.001L663.078 305.693C664.936 301.238 666.145 296.875 667.726 295.483C665.123 294.926 661.498 292.513 657.501 290.285L658.802 293.719C658.988 294.368 658.709 295.018 658.059 295.204C657.408 295.389 656.758 295.111 656.571 294.462L654.434 288.614C652.853 287.872 651.273 287.315 649.693 286.943L652.946 295.947C653.132 296.597 652.853 297.246 652.203 297.432C651.647 297.619 650.996 297.34 650.717 296.69Z" fill="white"/>
<path d="M642.816 190.134H187.19V484.742H642.816V190.134Z" fill="url(#paint2_linear_26_57)"/>
<path d="M634.823 197.467H195.184V440.096H634.823V197.467Z" fill="white"/>
<path d="M633.614 155.698C633.614 155.884 633.614 156.07 633.614 156.255C633.614 163.959 639.841 170.178 647.557 170.178C655.272 170.178 661.499 163.96 661.499 156.255C661.499 156.07 661.499 155.884 661.499 155.698H633.614Z" fill="#D3E3FE"/>
<path d="M683.527 121.819C683.527 122.098 683.527 122.468 683.527 122.747C683.527 135.463 693.844 145.766 706.578 145.766C719.311 145.766 729.628 135.463 729.628 122.747C729.628 122.468 729.628 122.098 729.628 121.819C729.629 121.819 683.527 121.819 683.527 121.819Z" fill="#A1C3FC"/>
<path d="M99.0762 97.686C99.0762 98.2429 99.0762 98.7071 99.0762 99.264C99.0762 120.705 116.55 138.156 138.021 138.156C159.493 138.156 176.966 120.706 176.966 99.264C176.966 98.7071 176.966 98.2429 176.966 97.686C176.966 97.686 99.0762 97.686 99.0762 97.686Z" fill="#F4F4F4"/>
<path d="M139.88 97.686C139.88 98.0576 139.88 98.4283 139.88 98.7998C139.88 114.394 152.52 127.017 168.136 127.017C183.751 127.017 196.392 114.394 196.392 98.7998C196.392 98.4283 196.392 98.0576 196.392 97.686H139.88Z" fill="#E7EFFE"/>
<path d="M123.521 469.334C123.336 473.418 125.845 477.13 128.727 480.101C136.534 488.362 147.038 494.024 158.191 495.88C164.418 496.901 170.831 496.901 177.152 497.644C195.556 499.964 212.751 509.989 223.812 524.84C218.7 513.794 221.674 500.707 226.507 489.568C231.341 478.43 237.94 467.849 240.263 455.968C242.308 445.757 238.683 432.298 228.366 430.535C220.744 429.236 213.308 435.083 205.687 433.969C202.991 433.597 200.11 432.02 199.552 429.328C198.065 422.552 211.45 419.396 209.869 412.62C208.104 404.824 188.492 412.62 189.142 404.73C189.422 401.389 193.418 399.346 194.161 396.005C194.905 392.664 193.696 388.673 190.536 387.373C186.446 385.609 181.985 389.136 177.523 389.322C172.412 389.601 168.043 385.517 165.719 380.969C163.395 376.421 162.558 371.223 160.513 366.582C155.495 355.073 142.854 347.369 130.305 348.111C117.757 348.854 106.139 358.043 102.514 370.109C101.027 375.028 101.12 381.154 105.117 384.496C108.463 387.28 114.319 388.022 115.062 392.292C116.084 398.14 105.675 401.574 107.068 407.329C108.648 414.105 122.497 410.299 123.892 417.075C124.542 420.139 121.847 422.737 120.639 425.522C118.222 430.813 121.754 437.867 127.423 439.259C129.654 439.816 132.164 439.537 134.208 440.652C139.227 443.436 137.276 451.326 133.371 455.503C129.284 459.773 123.893 463.579 123.521 469.334Z" fill="url(#paint3_linear_26_57)"/>
<path d="M198.437 426.451C197.229 416.798 196.299 407.145 195.648 397.492" stroke="#428DFC" stroke-width="3.32292" stroke-miterlimit="10" stroke-linecap="round"/>
<path d="M209.017 394.019C208.989 391.405 203.266 389.347 196.234 389.421C189.202 389.496 183.525 391.675 183.552 394.289C183.58 396.902 189.303 398.961 196.335 398.887C203.366 398.812 209.044 396.633 209.017 394.019Z" fill="#23286B"/>
<path d="M195.462 393.408C195.09 386.075 194.904 378.65 194.812 371.224" stroke="#428DFC" stroke-width="3.32292" stroke-miterlimit="10" stroke-linecap="round"/>
<path d="M211.992 367.241C211.954 363.705 204.268 360.919 194.824 361.019C185.379 361.119 177.754 364.067 177.791 367.603C177.829 371.14 185.515 373.925 194.96 373.825C204.404 373.725 212.029 370.778 211.992 367.241Z" fill="#23286B"/>
<path d="M194.812 366.212C194.904 361.292 194.997 356.373 195.184 351.454" stroke="#428DFC" stroke-width="3.32292" stroke-miterlimit="10" stroke-linecap="round"/>
<path d="M164.511 202.107L157.54 201.272C156.89 201.364 156.239 201.364 155.588 201.551L166.463 202.757C165.72 202.572 165.162 202.293 164.511 202.107ZM168.786 204.057L152.985 202.294C152.613 202.386 152.335 202.572 151.963 202.665L169.622 204.707C169.344 204.428 169.065 204.242 168.786 204.057ZM170.924 205.728L150.29 203.407C150.011 203.5 149.825 203.686 149.547 203.779L171.296 206.285C171.203 206.006 171.017 205.913 170.924 205.728ZM171.947 207.306L148.245 204.614C148.059 204.707 147.873 204.893 147.687 204.985L172.132 207.77C172.133 207.584 172.039 207.398 171.947 207.306ZM172.504 208.79L146.665 205.82C146.48 205.913 146.386 206.099 146.201 206.285L172.598 209.254C172.504 209.069 172.504 208.884 172.504 208.79ZM172.691 210.183L145.272 207.027C145.179 207.212 144.992 207.306 144.9 207.491L172.691 210.647C172.691 210.554 172.691 210.368 172.691 210.183ZM172.691 211.668L144.156 208.419C144.064 208.605 143.971 208.698 143.784 208.884L172.598 212.225C172.691 211.946 172.691 211.853 172.691 211.668ZM172.597 213.06L143.226 209.719C143.133 209.904 143.04 209.997 142.947 210.183L172.596 213.524C172.597 213.432 172.597 213.246 172.597 213.06ZM172.133 214.638C172.133 214.545 172.226 214.545 172.226 214.453L142.39 211.019C142.297 211.204 142.204 211.297 142.11 211.483L171.854 214.917C171.947 214.824 172.039 214.731 172.133 214.638ZM169.995 215.844C170.088 215.844 170.181 215.752 170.274 215.752L141.646 212.503C141.554 212.688 141.554 212.782 141.461 212.967L169.345 216.123C169.623 216.031 169.809 215.938 169.995 215.844ZM168.043 216.866L141.274 213.802C141.182 213.988 141.182 214.081 141.182 214.266L167.579 217.236C167.671 217.144 167.857 217.052 168.043 216.866ZM166.556 218.166L140.81 215.196C140.81 215.381 140.717 215.475 140.717 215.66L166.092 218.537C166.37 218.444 166.463 218.258 166.556 218.166ZM165.533 219.465L140.623 216.588C140.623 216.773 140.623 216.866 140.53 217.052L165.161 219.836C165.347 219.744 165.44 219.65 165.533 219.465ZM164.79 220.857L140.53 218.073C140.53 218.258 140.53 218.352 140.53 218.537L164.603 221.322C164.604 221.135 164.697 220.95 164.79 220.857ZM164.232 222.249L140.624 219.557C140.624 219.743 140.624 219.836 140.624 220.022L164.047 222.713C164.139 222.528 164.232 222.342 164.232 222.249ZM163.953 223.642L140.902 221.043C140.902 221.228 140.995 221.414 140.995 221.507L163.953 224.106C163.953 223.92 163.953 223.734 163.953 223.642ZM141.553 222.992L163.953 225.591C163.953 225.406 163.953 225.312 163.953 225.127L141.366 222.528C141.367 222.621 141.46 222.806 141.553 222.992ZM142.297 224.477L164.139 226.983C164.139 226.798 164.047 226.612 164.047 226.519L142.019 224.012C142.11 224.106 142.204 224.291 142.297 224.477ZM143.412 226.055L164.232 228.468C164.232 228.282 164.232 228.189 164.232 228.003L142.947 225.59C143.133 225.684 143.226 225.869 143.412 226.055ZM144.992 227.633C145.085 227.633 145.085 227.725 145.178 227.725L163.582 229.86C163.674 229.768 163.767 229.581 163.861 229.396L144.435 227.169C144.62 227.261 144.806 227.447 144.992 227.633ZM148.989 229.582L160.886 230.975C161.351 230.882 161.816 230.79 162.281 230.696L147.223 228.933C147.781 229.118 148.431 229.396 148.989 229.582Z" fill="#B3C9EE"/>
<path d="M467.372 268.598C482.505 273.83 494.492 283.617 501.803 295.318C518.079 279.063 533.167 254.427 543.344 225.033C564.092 165.095 526.532 97.7046 526.532 97.7046C526.532 97.7046 455.331 127.493 434.583 187.431C424.406 216.827 421.035 245.512 423.78 268.345C436.763 263.659 452.24 263.366 467.372 268.598Z" fill="url(#paint4_linear_26_57)"/>
<path d="M511.573 186.584C515.583 187.971 519.062 190.197 521.883 192.996C520.701 182.934 513.918 173.927 503.682 170.388C489.437 165.464 473.9 172.994 468.978 187.209C465.442 197.422 468.35 208.306 475.551 215.452C475.088 211.51 475.484 207.407 476.869 203.405C481.79 189.19 497.329 181.66 511.573 186.584Z" fill="#EFEFEF"/>
<path d="M520.56 205.035C521.945 201.034 522.342 196.93 521.878 192.988C519.057 190.188 515.577 187.963 511.567 186.576C497.322 181.652 481.783 189.182 476.863 203.397C475.478 207.399 475.081 211.502 475.545 215.445C478.366 218.244 481.846 220.47 485.856 221.856C500.102 226.781 515.64 219.25 520.56 205.035Z" fill="white"/>
<path d="M530.776 228.6L497.452 292.235L522.951 327.356C540.098 288.302 541.992 255.684 530.776 228.6Z" fill="#FF4945"/>
<path d="M445.102 199.034L431.953 269.658L390.177 281.525C400.846 240.224 419.531 213.403 445.102 199.034Z" fill="#FF4945"/>
<path d="M525.176 105.299C524.929 105.349 524.668 105.336 524.413 105.248C523.656 104.986 523.254 104.16 523.516 103.405L539.002 58.6541C539.265 57.8982 540.094 57.4982 540.847 57.7588C541.605 58.0207 542.007 58.8463 541.745 59.6018L526.259 104.352C526.084 104.856 525.661 105.201 525.176 105.299Z" fill="#FF4945"/>
<path d="M477.579 383.207C477.535 383.216 477.489 383.219 477.441 383.214C477.175 383.191 476.978 382.958 477.002 382.692C478.862 360.983 479.363 341.169 478.626 318.449C478.618 318.184 478.827 317.962 479.094 317.952C479.36 317.944 479.584 318.153 479.593 318.419C480.332 341.178 479.829 361.026 477.965 382.774C477.946 382.993 477.786 383.166 477.579 383.207Z" fill="#5BABF2"/>
<path d="M394.236 354.443C394.116 354.467 393.985 354.446 393.874 354.373C393.65 354.226 393.588 353.927 393.734 353.704C405.72 335.445 417.6 319.524 432.253 302.085C432.424 301.878 432.731 301.853 432.936 302.025C433.141 302.196 433.167 302.501 432.995 302.706C418.368 320.116 406.509 336.008 394.544 354.235C394.47 354.346 394.358 354.418 394.236 354.443Z" fill="#5BABF2"/>
<path d="M468.218 395.098L474.172 404.666L483.756 398.734L477.802 389.166L468.218 395.098Z" fill="#FF4945"/>
<path d="M412.339 395.468L405.628 404.511L414.701 411.213L421.412 402.17L412.339 395.468Z" fill="#1B236D"/>
<path d="M395.471 324.163L399.528 330.683L406.06 326.641L402.002 320.12L395.471 324.163Z" fill="#5BABF2"/>
<path d="M420.63 390.411C420.548 390.428 420.461 390.424 420.377 390.395C420.125 390.307 419.99 390.032 420.078 389.78L442.164 325.95C442.252 325.698 442.528 325.566 442.779 325.651C443.032 325.74 443.166 326.014 443.079 326.266L420.993 390.096C420.932 390.264 420.791 390.379 420.63 390.411Z" fill="#5BABF2"/>
<path d="M455.577 371.923C455.522 371.935 455.464 371.937 455.405 371.927C455.141 371.885 454.962 371.637 455.003 371.373L457.665 354.685C457.707 354.422 457.955 354.24 458.219 354.285C458.483 354.327 458.663 354.575 458.621 354.839L455.96 371.527C455.926 371.73 455.769 371.885 455.577 371.923Z" fill="#5BABF2"/>
<path d="M501.148 227.564C495.546 228.695 489.715 228.301 484.285 226.422C476.174 223.617 469.64 217.827 465.885 210.121C462.131 202.415 461.605 193.714 464.406 185.62C468.099 174.946 477.29 166.922 488.391 164.68C493.993 163.549 499.824 163.943 505.254 165.821C521.997 171.612 530.914 189.915 525.134 206.622C521.439 217.299 512.249 225.322 501.148 227.564ZM490.32 174.15C482.557 175.717 476.133 181.325 473.551 188.785C471.595 194.44 471.963 200.521 474.586 205.906C477.21 211.291 481.776 215.337 487.444 217.297C491.24 218.611 495.313 218.887 499.221 218.098C506.984 216.53 513.409 210.922 515.991 203.462C520.03 191.787 513.798 178.997 502.099 174.951C498.3 173.637 494.228 173.36 490.32 174.15Z" fill="#FF4945"/>
<path d="M478.65 143.314C509.033 153.819 533.456 173.115 549.211 196.5C553.242 145.569 526.566 97.7045 526.566 97.7045C526.566 97.7045 493.372 111.597 465.708 139.487C470.027 140.556 474.346 141.828 478.65 143.314Z" fill="#5BABF2"/>
<path d="M548.041 154.405C541.991 120.53 527.612 94.7217 527.612 94.7217C527.612 94.7217 500.35 106.133 474.645 129.031L548.041 154.405Z" fill="url(#paint5_linear_26_57)"/>
<path d="M275.884 266.405C231.705 274.738 203.474 261.607 173.918 269.823C173.918 269.823 158.347 198.996 144.753 168.231C153.834 154.602 175.054 147.048 190.303 141.146C214.686 131.711 237.058 117.19 255.611 98.7673C279.411 124.943 329.106 183.221 329.106 183.221C307.252 202.011 298.461 235.939 275.884 266.405Z" fill="#151A4F"/>
<path d="M383.604 64.1164L233.156 204.233L42.9476 235.767L205.739 84.726L383.604 64.1164Z" fill="#23286B"/>
<path d="M231.483 131.212L209.419 151.763L181.52 156.389L205.396 134.234L231.483 131.212Z" fill="#428DFC"/>
<path d="M33.7959 309.104C48.0086 300.33 59.6154 287.11 65.9641 271.797C68.5091 265.66 70.2808 259.171 71.9983 252.896C73.3384 247.994 74.7258 242.926 76.465 238.087C85.5008 212.954 105.733 190.049 133.544 173.49C159.338 158.149 188.402 149.547 215.968 142.539C216.502 142.403 216.818 141.866 216.684 141.338C216.549 140.809 216.013 140.489 215.482 140.625C187.771 147.67 158.543 156.322 132.532 171.794C104.393 188.547 83.7924 211.856 74.6029 237.42C72.8381 242.332 71.4398 247.439 70.0895 252.377C68.3893 258.592 66.6299 265.022 64.1324 271.043C55.3024 292.337 36.0357 309.492 13.8553 315.815C7.4794 317.634 2.9922 317.487 -0.271166 315.35C-2.31069 314.014 -3.60212 311.121 -3.33851 308.464C-3.2281 307.358 -2.74418 305.386 -0.710273 304.559C-0.214899 304.356 0.0405616 303.778 -0.162281 303.274C-0.369547 302.768 -0.94558 302.524 -1.45001 302.73C-3.64823 303.607 -5.04366 305.634 -5.30746 308.278C-5.64275 311.679 -4.01936 315.267 -1.35376 317.011C3.6087 320.257 10.015 318.97 14.4011 317.721C21.198 315.78 27.7352 312.846 33.7959 309.104Z" fill="#428DFC"/>
<path d="M30.3466 296.247C39.0578 290.869 47.0816 283.624 53.423 277.543C62.363 268.974 69.0921 258.581 73.9917 245.771C74.1891 245.262 73.9316 244.691 73.4219 244.493C72.907 244.296 72.338 244.555 72.1437 245.066C67.3504 257.596 60.7791 267.753 52.0556 276.115C44.2774 283.569 33.9535 292.789 23.0415 298.004C13.8498 302.394 6.86684 299.067 3.67974 294.882C1.41054 291.907 1.05828 288.565 2.79703 286.567C3.15751 286.154 3.1105 285.53 2.70031 285.173C2.28574 284.814 1.66722 284.857 1.30402 285.273C-1.06597 288 -0.744368 292.345 2.10853 296.086C6.02992 301.235 14.2898 304.378 23.8974 299.789C26.0768 298.75 28.2316 297.552 30.3466 296.247Z" fill="#428DFC"/>
<path d="M44.0884 321.19C55.233 314.31 64.4158 304.198 70.0277 292.381C77.7234 276.174 79.3659 260.464 74.9132 245.692C74.7552 245.169 74.2027 244.876 73.6814 245.032C73.1535 245.195 72.8633 245.743 73.0189 246.263C77.3276 260.551 75.7207 275.784 68.2436 291.533C61.3121 306.122 48.7743 318.037 33.8486 324.222C33.3576 324.428 33.1015 325.009 33.3126 325.513C33.5199 326.019 34.0993 326.255 34.6056 326.049C37.8858 324.691 41.0614 323.058 44.0884 321.19Z" fill="#428DFC"/>
<path d="M549.81 355.215L512.567 388.264L538.226 417.402L575.469 384.353L549.81 355.215Z" fill="url(#paint6_linear_26_57)"/>
<path d="M512.567 388.264L544.021 386.31L549.812 355.214L512.567 388.264Z" fill="#EEEEEE"/>
<path d="M355.031 290.814L307.525 305.43L318.908 342.629L366.414 328.013L355.031 290.814Z" fill="url(#paint7_linear_26_57)"/>
<path d="M307.525 305.435L336.976 316.733L355.04 290.814L307.525 305.435Z" fill="#EEEEEE"/>
<path d="M373.275 368.831L328.965 400.341L353.455 434.996L397.765 403.486L373.275 368.831Z" fill="url(#paint8_linear_26_57)"/>
<path d="M328.964 400.343L363.368 401.918L373.277 368.83L328.964 400.343Z" fill="#EEEEEE"/>
<path d="M348.461 367.288C344.028 368.435 339.618 369.3 335.231 369.886C334.107 365.237 333.198 360.795 332.618 356.667C336.991 355.612 341.401 354.746 345.848 354.069C346.943 358.288 347.798 362.708 348.461 367.288Z" fill="#A1C3FC"/>
<path d="M561.7 332.072L554.013 324.397L561.7 316.722L569.388 324.397L561.7 332.072Z" fill="#A1C3FC"/>
<path d="M509.008 336.165L506.819 337.293H509.583L509.008 336.165Z" fill="#A1C3FC"/>
<path d="M499.164 341.239H511.593L510.535 339.162H503.193L499.164 341.239Z" fill="#A1C3FC"/>
<path d="M491.51 345.185H513.604L512.545 343.108H495.538L491.51 345.185Z" fill="#A1C3FC"/>
<path d="M492.545 349.131H515.614L514.556 347.054H491.487L492.545 349.131Z" fill="#A1C3FC"/>
<path d="M494.556 353.077H517.625L516.567 351H493.498L494.556 353.077Z" fill="#A1C3FC"/>
<path d="M496.567 357.023H513.156L517.185 354.946H495.509L496.567 357.023Z" fill="#A1C3FC"/>
<path d="M498.578 360.968H505.502L509.53 358.892H497.52L498.578 360.968Z" fill="#A1C3FC"/>
<path d="M500.017 363.795L501.875 362.837H499.529L500.017 363.795Z" fill="#A1C3FC"/>
<path d="M414.843 286.022L413.47 286.732H415.204L414.843 286.022Z" fill="#A1C3FC"/>
<path d="M408.667 289.217H416.465L415.801 287.909H411.195L408.667 289.217Z" fill="#A1C3FC"/>
<path d="M403.863 291.701H417.726L417.062 290.393H406.391L403.863 291.701Z" fill="#A1C3FC"/>
<path d="M404.514 294.185H418.988L418.324 292.878H403.85L404.514 294.185Z" fill="#A1C3FC"/>
<path d="M405.775 296.67H420.25L419.586 295.362H405.111L405.775 296.67Z" fill="#A1C3FC"/>
<path d="M407.037 299.154H417.446L419.974 297.847H406.373L407.037 299.154Z" fill="#A1C3FC"/>
<path d="M408.299 301.638H412.643L415.171 300.331H407.635L408.299 301.638Z" fill="#A1C3FC"/>
<path d="M409.202 303.418L410.367 302.815H408.896L409.202 303.418Z" fill="#A1C3FC"/>
<path d="M380.01 304.222C376.906 305.086 373.814 305.751 370.735 306.22C369.885 302.963 369.189 299.849 368.728 296.952C371.791 296.153 374.883 295.488 378.003 294.954C378.827 297.909 379.485 301.008 380.01 304.222Z" fill="#E94A47"/>
<path d="M573.385 356.519C570.844 356.67 568.346 356.669 565.89 356.519C565.778 353.866 565.761 351.348 565.89 349.037C568.389 348.93 570.887 348.93 573.385 349.037C573.527 351.453 573.517 353.952 573.385 356.519Z" fill="#E94A47"/>
<path d="M315.798 399.024C313.765 400.249 311.701 401.331 309.608 402.27C308.361 400.126 307.252 398.052 306.353 396.086C308.37 394.916 310.433 393.834 312.542 392.84C313.711 394.775 314.79 396.846 315.798 399.024Z" fill="#E94A47"/>
<path d="M462.782 335.353C460.902 337.309 458.946 339.115 456.914 340.773C454.901 338.776 453.062 336.817 451.485 334.914C453.364 333.024 455.32 331.217 457.353 329.495C459.217 331.284 461.023 333.248 462.782 335.353Z" fill="#A1C3FC"/>
</g>
<defs>
<linearGradient id="paint0_linear_26_57" x1="578.536" y1="316.847" x2="697.362" y2="316.847" gradientUnits="userSpaceOnUse">
<stop stop-color="#B9D3FD"/>
<stop offset="1" stop-color="#89B3F4"/>
</linearGradient>
<linearGradient id="paint1_linear_26_57" x1="617.326" y1="344.526" x2="741.276" y2="344.526" gradientUnits="userSpaceOnUse">
<stop stop-color="#DEEAFE"/>
<stop offset="1" stop-color="#E9F1FE"/>
</linearGradient>
<linearGradient id="paint2_linear_26_57" x1="187.191" y1="337.438" x2="642.817" y2="337.438" gradientUnits="userSpaceOnUse">
<stop stop-color="#EEEEEE"/>
<stop offset="1" stop-color="#D6D7D8"/>
</linearGradient>
<linearGradient id="paint3_linear_26_57" x1="233.64" y1="420.495" x2="118.287" y2="452.249" gradientUnits="userSpaceOnUse">
<stop stop-color="#B9D3FD"/>
<stop offset="1" stop-color="#89B3F4"/>
</linearGradient>
<linearGradient id="paint4_linear_26_57" x1="440.283" y1="170.966" x2="549.027" y2="208.616" gradientUnits="userSpaceOnUse">
<stop stop-color="#92C4FE"/>
<stop offset="1" stop-color="#5BABF2"/>
</linearGradient>
<linearGradient id="paint5_linear_26_57" x1="482.78" y1="105.533" x2="556.165" y2="130.94" gradientUnits="userSpaceOnUse">
<stop stop-color="#FF4945"/>
<stop offset="1" stop-color="#F92424"/>
</linearGradient>
<linearGradient id="paint6_linear_26_57" x1="561.103" y1="404.346" x2="527.109" y2="368.735" gradientUnits="userSpaceOnUse">
<stop offset="0.0898" stop-color="#EEEEEE"/>
<stop offset="0.8178" stop-color="#D6D7D8"/>
</linearGradient>
<linearGradient id="paint7_linear_26_57" x1="345.11" y1="340.248" x2="328.892" y2="293.658" gradientUnits="userSpaceOnUse">
<stop offset="0.0898" stop-color="#EEEEEE"/>
<stop offset="0.8178" stop-color="#D6D7D8"/>
</linearGradient>
<linearGradient id="paint8_linear_26_57" x1="379.83" y1="423.507" x2="347.069" y2="380.819" gradientUnits="userSpaceOnUse">
<stop offset="0.0898" stop-color="#EEEEEE"/>
<stop offset="0.8178" stop-color="#D6D7D8"/>
</linearGradient>
<clipPath id="clip0_26_57">
<rect width="820" height="614" fill="white"/>
</clipPath>
</defs>
</svg>
