<svg width="59" height="57" viewBox="0 0 59 57" fill="none" xmlns="http://www.w3.org/2000/svg">
<path d="M1.31857 43.8751V38.9121H2.07564V39.6645C2.26881 39.3124 2.44639 39.0803 2.6084 38.9682C2.77352 38.856 2.95422 38.7999 3.1505 38.7999C3.43401 38.7999 3.7222 38.8903 4.01506 39.071L3.72532 39.8514C3.51969 39.7299 3.31407 39.6692 3.10844 39.6692C2.92463 39.6692 2.7595 39.7252 2.61307 39.8374C2.46664 39.9464 2.36227 40.0991 2.29996 40.2954C2.2065 40.5945 2.15976 40.9216 2.15976 41.2768V43.8751H1.31857ZM7.91259 42.2769L8.78182 42.3843C8.64474 42.8922 8.39082 43.2863 8.02008 43.5667C7.64933 43.8471 7.17577 43.9873 6.59939 43.9873C5.87348 43.9873 5.2971 43.7645 4.87027 43.319C4.44656 42.8704 4.23471 42.2426 4.23471 41.4357C4.23471 40.6007 4.44968 39.9527 4.87962 39.4916C5.30956 39.0305 5.86724 38.7999 6.55266 38.7999C7.21627 38.7999 7.75837 39.0258 8.17897 39.4776C8.59956 39.9293 8.80986 40.5649 8.80986 41.3843C8.80986 41.4341 8.80831 41.5089 8.80519 41.6086H5.10394C5.13509 42.1538 5.28931 42.5713 5.5666 42.861C5.84388 43.1508 6.1897 43.2956 6.60407 43.2956C6.9125 43.2956 7.17577 43.2146 7.39385 43.0526C7.61194 42.8906 7.78485 42.632 7.91259 42.2769ZM5.15067 40.9169H7.92194C7.88455 40.4994 7.77862 40.1863 7.60415 39.9776C7.33622 39.6536 6.98884 39.4916 6.56201 39.4916C6.17568 39.4916 5.85011 39.6209 5.58529 39.8795C5.32358 40.138 5.17871 40.4839 5.15067 40.9169ZM14.8384 41.473L15.745 41.702C15.555 42.4467 15.2123 43.0152 14.7169 43.4078C14.2247 43.7972 13.6218 43.992 12.9083 43.992C12.17 43.992 11.5687 43.8424 11.1045 43.5433C10.6434 43.2411 10.2913 42.8049 10.0483 42.2348C9.80839 41.6647 9.68844 41.0525 9.68844 40.3982C9.68844 39.6847 9.82397 39.0632 10.095 38.5335C10.3692 38.0008 10.7571 37.5973 11.2587 37.3232C11.7634 37.0459 12.318 36.9072 12.9224 36.9072C13.6078 36.9072 14.1842 37.0817 14.6515 37.4306C15.1188 37.7796 15.4444 38.2703 15.6282 38.9027L14.7356 39.113C14.5767 38.6145 14.3462 38.2516 14.044 38.0242C13.7417 37.7967 13.3617 37.683 12.9037 37.683C12.3771 37.683 11.9363 37.8092 11.5811 38.0615C11.2291 38.3139 10.9814 38.6535 10.8381 39.0803C10.6948 39.504 10.6231 39.9418 10.6231 40.3935C10.6231 40.9761 10.7072 41.4855 10.8755 41.9217C11.0468 42.3547 11.3116 42.6788 11.6699 42.8937C12.0282 43.1087 12.4161 43.2162 12.8336 43.2162C13.3414 43.2162 13.7713 43.0698 14.1234 42.7769C14.4755 42.484 14.7138 42.0494 14.8384 41.473ZM16.1142 43.8751L18.7453 37.0241H19.722L22.526 43.8751H21.4932L20.6941 41.8002H17.8293L17.0769 43.8751H16.1142ZM18.091 41.0618H20.4137L19.6986 39.1644C19.4806 38.5881 19.3185 38.1145 19.2126 37.7438C19.1254 38.183 19.0023 38.6192 18.8434 39.0523L18.091 41.0618ZM23.2503 43.8751V37.0241H25.8347C26.2895 37.0241 26.6369 37.0459 26.8768 37.0895C27.2133 37.1456 27.4953 37.2531 27.7227 37.412C27.9501 37.5677 28.1324 37.7874 28.2695 38.0709C28.4097 38.3544 28.4798 38.666 28.4798 39.0055C28.4798 39.5882 28.2944 40.082 27.9236 40.487C27.5529 40.8889 26.8831 41.0898 25.9141 41.0898H24.157V43.8751H23.2503ZM24.157 40.2814H25.9281C26.5139 40.2814 26.9298 40.1723 27.1759 39.9542C27.422 39.7361 27.5451 39.4293 27.5451 39.0336C27.5451 38.747 27.4719 38.5024 27.3255 38.2999C27.1821 38.0943 26.9921 37.9587 26.7553 37.8933C26.6027 37.8528 26.3207 37.8326 25.9095 37.8326H24.157V40.2814ZM31.3772 43.8751V37.8326H29.12V37.0241H34.5504V37.8326H32.2838V43.8751H31.3772ZM40.3733 41.473L41.2799 41.702C41.0899 42.4467 40.7472 43.0152 40.2518 43.4078C39.7595 43.7972 39.1567 43.992 38.4432 43.992C37.7049 43.992 37.1036 43.8424 36.6393 43.5433C36.1782 43.2411 35.8262 42.8049 35.5832 42.2348C35.3433 41.6647 35.2233 41.0525 35.2233 40.3982C35.2233 39.6847 35.3589 39.0632 35.6299 38.5335C35.9041 38.0008 36.292 37.5973 36.7936 37.3232C37.2983 37.0459 37.8528 36.9072 38.4573 36.9072C39.1427 36.9072 39.719 37.0817 40.1864 37.4306C40.6537 37.7796 40.9793 38.2703 41.1631 38.9027L40.2705 39.113C40.1116 38.6145 39.881 38.2516 39.5788 38.0242C39.2766 37.7967 38.8965 37.683 38.4386 37.683C37.912 37.683 37.4712 37.8092 37.116 38.0615C36.764 38.3139 36.5163 38.6535 36.373 39.0803C36.2296 39.504 36.158 39.9418 36.158 40.3935C36.158 40.9761 36.2421 41.4855 36.4103 41.9217C36.5817 42.3547 36.8465 42.6788 37.2048 42.8937C37.5631 43.1087 37.951 43.2162 38.3685 43.2162C38.8763 43.2162 39.3062 43.0698 39.6583 42.7769C40.0103 42.484 40.2487 42.0494 40.3733 41.473ZM42.4296 43.8751V37.0241H43.3362V39.8374H46.8972V37.0241H47.8038V43.8751H46.8972V40.6459H43.3362V43.8751H42.4296ZM48.5656 43.8751L51.1967 37.0241H52.1734L54.9774 43.8751H53.9446L53.1454 41.8002H50.2807L49.5283 43.8751H48.5656ZM50.5424 41.0618H52.865L52.15 39.1644C51.9319 38.5881 51.7699 38.1145 51.664 37.7438C51.5767 38.183 51.4537 38.6192 51.2948 39.0523L50.5424 41.0618Z" fill="#A5A5A5"/>
<path d="M1.32543 54.8329V49.0023H3.52486C3.91198 49.0023 4.20763 49.0208 4.41179 49.0579C4.69816 49.1057 4.93812 49.1972 5.13168 49.3324C5.32524 49.465 5.48035 49.6519 5.59702 49.8932C5.71634 50.1345 5.776 50.3996 5.776 50.6886C5.776 51.1845 5.61823 51.6047 5.3027 51.9494C4.98717 52.2915 4.4171 52.4625 3.59248 52.4625H2.09702V54.8329H1.32543ZM2.09702 51.7744H3.60441C4.10289 51.7744 4.45687 51.6816 4.66634 51.496C4.87581 51.3104 4.98054 51.0492 4.98054 50.7125C4.98054 50.4686 4.91823 50.2604 4.79361 50.0881C4.67164 49.9131 4.5099 49.7977 4.30839 49.742C4.17846 49.7076 3.9385 49.6903 3.5885 49.6903H2.09702V51.7744ZM6.65895 54.8329V50.6091H7.30327V51.2494C7.46767 50.9498 7.6188 50.7523 7.75668 50.6568C7.89721 50.5614 8.051 50.5136 8.21804 50.5136C8.45933 50.5136 8.7046 50.5905 8.95384 50.7443L8.70725 51.4085C8.53225 51.3051 8.35725 51.2534 8.18225 51.2534C8.02581 51.2534 7.88528 51.3011 7.76066 51.3966C7.63604 51.4894 7.54721 51.6193 7.49418 51.7864C7.41463 52.0409 7.37486 52.3193 7.37486 52.6216V54.8329H6.65895ZM9.38338 49.8256V49.0023H10.0993V49.8256H9.38338ZM9.38338 54.8329V50.6091H10.0993V54.8329H9.38338ZM12.3663 54.8329L10.7595 50.6091H11.5152L12.422 53.1386C12.5201 53.4117 12.6103 53.6954 12.6925 53.9898C12.7561 53.767 12.8449 53.4992 12.959 53.1864L13.8976 50.6091H14.6334L13.0345 54.8329H12.3663ZM18.022 54.3119C17.7569 54.5373 17.501 54.6964 17.2544 54.7892C17.0105 54.882 16.748 54.9284 16.4669 54.9284C16.0029 54.9284 15.6463 54.8157 15.397 54.5903C15.1478 54.3623 15.0232 54.072 15.0232 53.7193C15.0232 53.5125 15.0696 53.3242 15.1624 53.1545C15.2578 52.9822 15.3811 52.8443 15.5322 52.7409C15.686 52.6375 15.8584 52.5593 16.0493 52.5062C16.1898 52.4691 16.4019 52.4333 16.6857 52.3989C17.2637 52.3299 17.6893 52.2477 17.9624 52.1523C17.965 52.0542 17.9663 51.9918 17.9663 51.9653C17.9663 51.6737 17.8987 51.4682 17.7635 51.3489C17.5805 51.1871 17.3088 51.1062 16.9482 51.1062C16.6114 51.1062 16.3622 51.1659 16.2004 51.2852C16.0413 51.4019 15.9233 51.61 15.8465 51.9097L15.1465 51.8142C15.2101 51.5146 15.3148 51.2733 15.4607 51.0903C15.6065 50.9047 15.8173 50.7629 16.093 50.6648C16.3688 50.564 16.6883 50.5136 17.0516 50.5136C17.4122 50.5136 17.7052 50.5561 17.9305 50.6409C18.1559 50.7257 18.3216 50.8331 18.4277 50.9631C18.5338 51.0903 18.608 51.2521 18.6504 51.4483C18.6743 51.5703 18.6862 51.7903 18.6862 52.1085V53.0631C18.6862 53.7286 18.7008 54.1502 18.73 54.3278C18.7618 54.5028 18.8228 54.6712 18.9129 54.8329H18.1652C18.091 54.6845 18.0432 54.5108 18.022 54.3119ZM17.9624 52.7131C17.7025 52.8191 17.3127 52.9093 16.793 52.9835C16.4987 53.0259 16.2906 53.0737 16.1686 53.1267C16.0466 53.1797 15.9525 53.2579 15.8862 53.3614C15.8199 53.4621 15.7868 53.5748 15.7868 53.6994C15.7868 53.8903 15.8584 54.0494 16.0016 54.1767C16.1474 54.304 16.3595 54.3676 16.6379 54.3676C16.9137 54.3676 17.159 54.3079 17.3737 54.1886C17.5885 54.0667 17.7463 53.9009 17.847 53.6915C17.9239 53.5297 17.9624 53.2911 17.9624 52.9756V52.7131ZM22.5561 53.2858L23.2601 53.3773C23.1832 53.8625 22.9857 54.243 22.6675 54.5187C22.3519 54.7918 21.9635 54.9284 21.5021 54.9284C20.9241 54.9284 20.4588 54.7401 20.1061 54.3636C19.7561 53.9845 19.5811 53.4422 19.5811 52.7369C19.5811 52.2809 19.6567 51.8818 19.8078 51.5398C19.959 51.1977 20.1883 50.9418 20.4959 50.7722C20.8061 50.5998 21.1429 50.5136 21.5061 50.5136C21.9648 50.5136 22.34 50.6303 22.6317 50.8636C22.9233 51.0943 23.1103 51.4231 23.1925 51.85L22.4965 51.9574C22.4302 51.6737 22.3122 51.4602 22.1425 51.317C21.9754 51.1739 21.7726 51.1023 21.534 51.1023C21.1733 51.1023 20.8804 51.2322 20.655 51.492C20.4296 51.7492 20.3169 52.1576 20.3169 52.717C20.3169 53.2845 20.4256 53.6968 20.643 53.954C20.8605 54.2112 21.1442 54.3398 21.4942 54.3398C21.7752 54.3398 22.0099 54.2536 22.1982 54.0812C22.3864 53.9089 22.5057 53.6437 22.5561 53.2858ZM23.8408 56.4597L23.7612 55.7875C23.9177 55.8299 24.0542 55.8511 24.1709 55.8511C24.33 55.8511 24.4572 55.8246 24.5527 55.7716C24.6482 55.7186 24.7264 55.6443 24.7874 55.5489C24.8324 55.4773 24.9054 55.2996 25.0061 55.0159C25.0194 54.9761 25.0406 54.9178 25.0697 54.8409L23.4669 50.6091H24.2385L25.1175 53.0551C25.2315 53.3653 25.3336 53.6915 25.4237 54.0335C25.5059 53.7047 25.604 53.3839 25.718 53.071L26.6209 50.6091H27.3368L25.73 54.9045C25.5576 55.3686 25.4237 55.6881 25.3283 55.8631C25.201 56.099 25.0552 56.2714 24.8908 56.3801C24.7264 56.4915 24.5302 56.5472 24.3021 56.5472C24.1643 56.5472 24.0105 56.518 23.8408 56.4597ZM29.934 53.0829V52.3631H32.1334V53.0829H29.934ZM36.6158 54.8329V49.6903H34.6947V49.0023H39.3163V49.6903H37.3874V54.8329H36.6158ZM42.005 53.4727L42.7447 53.5642C42.6281 53.9964 42.412 54.3318 42.0965 54.5704C41.7809 54.8091 41.3779 54.9284 40.8874 54.9284C40.2696 54.9284 39.779 54.7388 39.4158 54.3597C39.0552 53.9778 38.8749 53.4436 38.8749 52.7568C38.8749 52.0462 39.0578 51.4947 39.4237 51.1023C39.7896 50.7098 40.2643 50.5136 40.8476 50.5136C41.4124 50.5136 41.8737 50.7059 42.2317 51.0903C42.5896 51.4748 42.7686 52.0157 42.7686 52.7131C42.7686 52.7555 42.7673 52.8191 42.7646 52.904H39.6146C39.6411 53.368 39.7724 53.7233 40.0084 53.9699C40.2444 54.2165 40.5387 54.3398 40.8913 54.3398C41.1538 54.3398 41.3779 54.2708 41.5635 54.1329C41.7491 53.9951 41.8963 53.775 42.005 53.4727ZM39.6544 52.3153H42.0129C41.9811 51.96 41.891 51.6936 41.7425 51.5159C41.5144 51.2401 41.2188 51.1023 40.8555 51.1023C40.5268 51.1023 40.2497 51.2123 40.0243 51.4324C39.8016 51.6525 39.6783 51.9468 39.6544 52.3153ZM43.6396 54.8329V50.6091H44.284V51.2494C44.4483 50.9498 44.5995 50.7523 44.7374 50.6568C44.8779 50.5614 45.0317 50.5136 45.1987 50.5136C45.44 50.5136 45.6853 50.5905 45.9345 50.7443L45.6879 51.4085C45.5129 51.3051 45.3379 51.2534 45.1629 51.2534C45.0065 51.2534 44.866 51.3011 44.7413 51.3966C44.6167 51.4894 44.5279 51.6193 44.4749 51.7864C44.3953 52.0409 44.3555 52.3193 44.3555 52.6216V54.8329H43.6396ZM46.3601 54.8329V50.6091H47.0004V51.2017C47.133 50.9949 47.3093 50.8292 47.5294 50.7045C47.7495 50.5773 48.0001 50.5136 48.2811 50.5136C48.594 50.5136 48.8499 50.5786 49.0487 50.7085C49.2502 50.8384 49.3921 51.0201 49.4743 51.2534C49.8084 50.7602 50.2432 50.5136 50.7788 50.5136C51.1978 50.5136 51.5199 50.6303 51.7453 50.8636C51.9707 51.0943 52.0834 51.4509 52.0834 51.9335V54.8329H51.3715V52.1722C51.3715 51.8858 51.3476 51.6803 51.2999 51.5557C51.2548 51.4284 51.1713 51.3263 51.0493 51.2494C50.9273 51.1725 50.7841 51.1341 50.6197 51.1341C50.3228 51.1341 50.0762 51.2335 49.88 51.4324C49.6838 51.6286 49.5857 51.9441 49.5857 52.379V54.8329H48.8697V52.0886C48.8697 51.7704 48.8114 51.5318 48.6947 51.3727C48.5781 51.2136 48.3872 51.1341 48.122 51.1341C47.9205 51.1341 47.7336 51.1871 47.5612 51.2932C47.3915 51.3992 47.2682 51.5543 47.1913 51.7585C47.1144 51.9627 47.076 52.257 47.076 52.6415V54.8329H46.3601ZM52.859 53.5722L53.5669 53.4608C53.6067 53.7445 53.7167 53.9619 53.897 54.1131C54.08 54.2642 54.3345 54.3398 54.6607 54.3398C54.9894 54.3398 55.2334 54.2735 55.3925 54.1409C55.5516 54.0057 55.6311 53.8479 55.6311 53.6676C55.6311 53.5059 55.5608 53.3786 55.4203 53.2858C55.3222 53.2222 55.0783 53.1413 54.6885 53.0432C54.1635 52.9106 53.7989 52.7966 53.5947 52.7011C53.3932 52.603 53.2394 52.4691 53.1334 52.2994C53.03 52.1271 52.9783 51.9375 52.9783 51.7307C52.9783 51.5424 53.0207 51.3687 53.1055 51.2097C53.193 51.0479 53.311 50.914 53.4595 50.8079C53.5709 50.7257 53.722 50.6568 53.9129 50.6011C54.1065 50.5428 54.3133 50.5136 54.5334 50.5136C54.8648 50.5136 55.1552 50.5614 55.4044 50.6568C55.6563 50.7523 55.8419 50.8822 55.9612 51.0466C56.0805 51.2083 56.1627 51.4257 56.2078 51.6989L55.5078 51.7943C55.476 51.5769 55.3832 51.4072 55.2294 51.2852C55.0783 51.1632 54.8635 51.1023 54.5851 51.1023C54.2563 51.1023 54.0216 51.1566 53.8811 51.2653C53.7406 51.374 53.6703 51.5013 53.6703 51.6472C53.6703 51.74 53.6995 51.8235 53.7578 51.8977C53.8161 51.9746 53.9076 52.0382 54.0322 52.0886C54.1038 52.1151 54.3146 52.1761 54.6646 52.2716C55.1711 52.4068 55.5237 52.5182 55.7226 52.6057C55.9241 52.6905 56.0819 52.8151 56.1959 52.9795C56.3099 53.1439 56.3669 53.3481 56.3669 53.592C56.3669 53.8307 56.2966 54.0561 56.1561 54.2682C56.0182 54.4776 55.818 54.6407 55.5555 54.7574C55.293 54.8714 54.9961 54.9284 54.6646 54.9284C54.1158 54.9284 53.6968 54.8144 53.4078 54.5864C53.1215 54.3583 52.9385 54.0203 52.859 53.5722Z" fill="#A5A5A5"/>
<g filter="url(#filter0_d_8_28)">
<path d="M29.3993 1C36.8742 1 40.8103 5.92597 41.2056 6.44672L44.062 3.61201L44.222 15.7091L31.9687 15.6108L35.9235 11.6874C35.5704 11.188 33.5955 8.65526 29.6162 8.27437C28.2291 8.14161 26.9823 8.43596 25.9242 8.90233L21.5137 3.04185C23.4736 1.94226 26.1121 1 29.3993 1Z" fill="black"/>
</g>
<path d="M29.3993 1C36.8742 1 40.8103 5.92597 41.2056 6.44672L44.062 3.61201L44.222 15.7091L31.9687 15.6108L35.9235 11.6874C35.5704 11.188 33.5955 8.65526 29.6162 8.27437C28.2291 8.14161 26.9823 8.43596 25.9242 8.90233L21.5137 3.04185C23.4736 1.94226 26.1121 1 29.3993 1Z" fill="#2B4CB9"/>
<g filter="url(#filter1_d_8_28)">
<path d="M28.652 1.04077L28.5505 12.907L24.5459 9.12C24.0934 9.41496 21.3976 11.3265 20.9978 15.2437C20.893 16.2698 21.0457 17.2166 21.3383 18.0633L13.7513 18.2791C13.583 17.4005 13.4861 16.4584 13.4861 15.4537C13.4861 8.09486 18.7429 4.27766 19.1334 4.00425L16.1602 1.19569L28.652 1.04077Z" fill="black"/>
</g>
<path d="M28.652 1.04077L28.5505 12.907L24.5459 9.12C24.0934 9.41496 21.3976 11.3265 20.9978 15.2437C20.893 16.2698 21.0457 17.2166 21.3383 18.0633L13.7513 18.2791C13.583 17.4005 13.4861 16.4584 13.4861 15.4537C13.4861 8.09486 18.7429 4.27766 19.1334 4.00425L16.1602 1.19569L28.652 1.04077Z" fill="#5A96F6"/>
<g filter="url(#filter2_d_8_28)">
<path d="M13.5425 16.1727L25.7957 16.271L21.8409 20.1944C22.194 20.6938 24.1689 23.2265 28.1482 23.6074C32.5664 24.0303 35.5626 20.1196 35.5626 20.1196L40.4101 25.4505C40.4101 25.4505 36.2571 30.8818 28.3651 30.8818C20.8902 30.8818 16.9541 25.9558 16.5589 25.4351L13.7024 28.2698L13.5425 16.1727Z" fill="black"/>
</g>
<path d="M13.5425 16.1727L25.7957 16.271L21.8409 20.1944C22.194 20.6938 24.1689 23.2265 28.1482 23.6074C32.5664 24.0303 35.5626 20.1196 35.5626 20.1196L40.4101 25.4505C40.4101 25.4505 36.2571 30.8818 28.3651 30.8818C20.8902 30.8818 16.9541 25.9558 16.5589 25.4351L13.7024 28.2698L13.5425 16.1727Z" fill="#BEBEBE"/>
<defs>
<filter id="filter0_d_8_28" x="20.5137" y="0" width="24.7083" height="16.7091" filterUnits="userSpaceOnUse" color-interpolation-filters="sRGB">
<feFlood flood-opacity="0" result="BackgroundImageFix"/>
<feColorMatrix in="SourceAlpha" type="matrix" values="0 0 0 0 0 0 0 0 0 0 0 0 0 0 0 0 0 0 127 0" result="hardAlpha"/>
<feOffset/>
<feGaussianBlur stdDeviation="0.5"/>
<feColorMatrix type="matrix" values="0 0 0 0 0 0 0 0 0 0 0 0 0 0 0 0 0 0 0.5 0"/>
<feBlend mode="normal" in2="BackgroundImageFix" result="effect1_dropShadow_8_28"/>
<feBlend mode="normal" in="SourceGraphic" in2="effect1_dropShadow_8_28" result="shape"/>
</filter>
<filter id="filter1_d_8_28" x="12.4861" y="0.0407715" width="17.1658" height="19.2383" filterUnits="userSpaceOnUse" color-interpolation-filters="sRGB">
<feFlood flood-opacity="0" result="BackgroundImageFix"/>
<feColorMatrix in="SourceAlpha" type="matrix" values="0 0 0 0 0 0 0 0 0 0 0 0 0 0 0 0 0 0 127 0" result="hardAlpha"/>
<feOffset/>
<feGaussianBlur stdDeviation="0.5"/>
<feColorMatrix type="matrix" values="0 0 0 0 0 0 0 0 0 0 0 0 0 0 0 0 0 0 0.5 0"/>
<feBlend mode="normal" in2="BackgroundImageFix" result="effect1_dropShadow_8_28"/>
<feBlend mode="normal" in="SourceGraphic" in2="effect1_dropShadow_8_28" result="shape"/>
</filter>
<filter id="filter2_d_8_28" x="12.5425" y="15.1727" width="28.8677" height="16.7091" filterUnits="userSpaceOnUse" color-interpolation-filters="sRGB">
<feFlood flood-opacity="0" result="BackgroundImageFix"/>
<feColorMatrix in="SourceAlpha" type="matrix" values="0 0 0 0 0 0 0 0 0 0 0 0 0 0 0 0 0 0 127 0" result="hardAlpha"/>
<feOffset/>
<feGaussianBlur stdDeviation="0.5"/>
<feColorMatrix type="matrix" values="0 0 0 0 0 0 0 0 0 0 0 0 0 0 0 0 0 0 0.382529 0"/>
<feBlend mode="normal" in2="BackgroundImageFix" result="effect1_dropShadow_8_28"/>
<feBlend mode="normal" in="SourceGraphic" in2="effect1_dropShadow_8_28" result="shape"/>
</filter>
</defs>
</svg>
